PathFileType	4	(X/Y/Z)	TVC_4_BWA_6_walk_RCNL2025.trc
DataRate	CameraRate	NumFrames	NumMarkers	Units	OrigDataRate	OrigDataStartFrame	OrigNumFrames
100	100	11	27	mm	100	158	420
Frame#	Time	R_Shoulder			L_Shoulder			C7			J_Notch			R_Elbow			L_Elbow			R_Wrist			L_Wrist			R_Asis			L_Asis			R_Psis			L_Psis			Sacral			Thoracic			Sternum			R_Thigh_Lateral			R_Knee_Lateral			R_Shank_Lateral			R_Ankle_Lateral			R_Heel			R_Toe			L_Thigh_Lateral			L_Knee_Lateral			L_Shank_Lateral			L_Ankle_Lateral			L_Heel			L_Toe		
		X1	Y1	Z1	X2	Y2	Z2	X3	Y3	Z3	X4	Y4	Z4	X5	Y5	Z5	X6	Y6	Z6	X7	Y7	Z7	X8	Y8	Z8	X9	Y9	Z9	X10	Y10	Z10	X11	Y11	Z11	X12	Y12	Z12	X13	Y13	Z13	X14	Y14	Z14	X15	Y15	Z15	X16	Y16	Z16	X17	Y17	Z17	X18	Y18	Z18	X19	Y19	Z19	X20	Y20	Z20	X21	Y21	Z21	X22	Y22	Z22	X23	Y23	Z23	X24	Y24	Z24	X25	Y25	Z25	X26	Y26	Z26	X27	Y27	Z27
158	1.57000000	-1154.230713	1284.980835	349.042389	-1124.893433	1308.911621	-30.063160	-1199.719238	1364.620728	170.272552	-1055.458252	1242.734741	152.188797	-1251.932495	985.456543	402.831635	-1142.221069	996.357910	-138.946152	-1223.837036	756.295166	402.088760	-995.312714	842.145477	-90.385513	-1137.329712	851.689819	322.918640	-1184.629395	848.094177	-29.413975	-1295.788208	889.988342	216.397232	-1303.926147	890.476624	124.969872	-1299.857178	890.232483	170.683552	-1282.893188	1121.333862	156.842575	-1025.795776	1051.277954	146.031479	-1054.042358	519.732666	353.197845	-1035.273071	434.364197	303.374664	-998.966370	269.219757	374.132416	-933.724915	59.355145	285.641052	-975.673401	38.559334	238.045990	-805.500366	82.889725	267.138489	-1209.746216	489.249878	-27.294573	-1233.867676	409.476105	25.524355	-1268.764404	289.741791	-15.273746	-1348.737793	50.585918	73.006310	-1394.567261	47.064476	120.162544	-1215.186646	35.456100	87.161514
159	1.58000000	-1144.258545	1283.717773	349.903137	-1114.840088	1307.696899	-29.187784	-1189.794189	1363.254883	171.113708	-1045.372314	1241.527832	153.032867	-1243.898560	985.065552	403.804962	-1131.160156	995.308044	-138.361557	-1217.824036	755.661438	404.005020	-982.549927	843.204987	-88.192989	-1126.082886	850.398987	323.698456	-1175.476685	846.308228	-28.268801	-1285.173096	888.608765	218.159119	-1293.732422	888.845276	126.825447	-1289.452759	888.727020	172.492283	-1272.739746	1119.790771	157.729477	-1015.665100	1049.980591	146.513702	-1044.168091	517.923950	354.501251	-1025.785522	432.724335	303.848450	-987.919617	267.483246	373.697021	-920.775024	58.714252	284.271759	-962.849060	38.067150	236.889557	-792.551086	82.459877	265.029480	-1203.202271	487.878326	-26.278564	-1228.672363	408.561859	26.586737	-1265.339111	289.500092	-14.630245	-1348.595215	51.092026	73.021721	-1394.520630	47.883057	120.128990	-1215.190918	35.433548	87.163483
160	1.59000000	-1134.231689	1282.439209	350.866608	-1104.834106	1306.489746	-28.222683	-1179.865845	1361.893188	172.073425	-1035.253784	1240.367310	153.962814	-1235.546875	984.581665	404.882904	-1120.490601	994.195923	-137.561584	-1211.295837	754.978546	405.943375	-970.314362	844.028137	-86.001198	-1114.815552	849.156860	324.562073	-1166.132324	844.460571	-27.053553	-1274.526855	887.309753	219.944977	-1283.434448	887.263123	128.689117	-1278.980652	887.286438	174.317047	-1262.524414	1118.254517	158.698853	-1005.452515	1048.703003	147.093567	-1033.595581	516.551331	355.374329	-1015.666260	431.354218	304.133728	-977.257690	265.851593	373.096893	-910.561157	57.848274	283.072205	-953.040771	37.762894	236.012436	-782.263611	80.292389	262.708618	-1196.476440	486.522217	-25.165276	-1223.276855	407.680267	27.727139	-1261.753784	289.337250	-13.920343	-1348.401245	51.771702	73.035789	-1394.432983	48.917141	120.105278	-1215.180420	35.410248	87.164604
161	1.60000000	-1124.147949	1281.177246	351.927979	-1094.863403	1305.324341	-27.175701	-1169.917603	1360.589233	173.146210	-1025.097534	1239.290527	154.979568	-1226.868042	984.023865	406.060364	-1110.221680	993.045227	-136.543823	-1204.234924	754.264496	407.899139	-958.622375	844.600067	-83.824104	-1103.570190	848.054993	325.513245	-1156.559448	842.569641	-25.783726	-1263.885132	886.167053	221.721664	-1273.059937	885.794678	130.523209	-1268.472534	885.980865	176.122437	-1252.253662	1116.793701	159.748398	-995.154968	1047.485107	147.791107	-1022.556824	515.576355	355.842072	-1004.984680	430.311340	304.227936	-966.808350	264.379761	372.302032	-902.735168	56.833561	282.047272	-945.874390	37.718792	235.362701	-774.293762	76.551826	260.328430	-1189.513672	485.227051	-23.954561	-1217.592773	406.862518	28.949106	-1257.947388	289.301392	-13.141953	-1348.132324	52.692089	73.044724	-1394.272949	50.246040	120.088547	-1215.146118	35.381233	87.167236
162	1.61000000	-1114.006470	1279.977051	353.078674	-1084.904907	1304.245972	-26.059004	-1159.924927	1359.410156	174.319763	-1014.901367	1238.342163	156.082077	-1217.851196	983.421570	407.327026	-1100.359009	991.889160	-135.305359	-1196.627808	753.549072	409.865448	-947.489471	844.913147	-81.670996	-1092.389893	847.201111	326.550354	-1146.737671	840.673462	-24.474695	-1253.285889	885.256958	223.454987	-1262.641968	884.508850	132.288910	-1257.963928	884.882904	177.871948	-1241.939331	1115.490356	160.870880	-984.770874	1046.381348	148.621750	-1011.226074	514.976379	355.973969	-993.826294	429.655914	304.146759	-956.386658	263.171722	371.308716	-896.847229	55.792030	281.185028	-940.850525	38.016735	234.882736	-768.215698	71.595055	258.040955	-1182.236450	484.041412	-22.644207	-1211.505737	406.144135	30.254539	-1253.840454	289.448547	-12.303069	-1347.759644	53.935280	73.040092	-1393.998413	51.967327	120.070419	-1215.077393	35.339642	87.174034
163	1.62000000	-1103.809326	1278.897705	354.306732	-1074.928101	1303.309570	-24.887928	-1149.859863	1358.433105	175.576004	-1004.665100	1237.574463	157.266190	-1208.485718	982.817932	408.668793	-1090.901855	990.773926	-133.842194	-1188.465637	752.875427	411.830963	-936.936401	844.970367	-79.551882	-1081.321777	846.705811	327.666840	-1136.659424	838.830994	-23.135870	-1242.759277	884.644043	225.113815	-1252.212402	883.470398	133.951340	-1247.485840	884.057220	179.532578	-1231.596680	1114.430298	162.052124	-974.302246	1045.461670	149.595673	-999.673157	514.774170	355.850067	-982.275879	429.443146	303.920654	-945.835999	262.364594	370.162048	-892.423889	54.848152	280.467041	-937.422302	38.682076	234.534683	-763.591919	65.935638	255.967575	-1174.549805	483.013916	-21.231676	-1204.881836	405.561829	31.638525	-1249.332031	289.834503	-11.421084	-1347.243164	55.594440	73.007950	-1393.554321	54.196247	120.038010	-1214.964111	35.277267	87.188744
164	1.63000000	-1093.562134	1278.009521	355.596680	-1064.896484	1302.573486	-23.676847	-1139.694336	1357.733276	176.892899	-994.385620	1237.041504	158.525040	-1198.763062	982.270020	410.069824	-1081.839478	989.759949	-132.150864	-1179.742981	752.299255	413.779587	-926.991302	844.783997	-77.480869	-1070.414673	846.664429	328.856018	-1126.326172	837.119934	-21.764843	-1232.319214	884.367188	226.676147	-1241.796265	882.728760	135.488434	-1237.057739	883.547974	181.082291	-1221.241455	1113.685425	163.270081	-963.755676	1044.804810	150.717804	-987.883362	515.023865	355.539093	-970.414246	429.699188	303.587494	-935.075134	262.079071	368.965027	-889.053467	54.084183	279.878265	-935.090332	39.647202	234.302109	-760.051453	60.149563	254.177383	-1166.348022	482.187958	-19.719193	-1197.577637	405.149048	33.082916	-1244.305054	290.514038	-10.523932	-1346.526245	57.766785	72.929695	-1392.869995	57.060162	119.974068	-1214.798096	35.186443	87.216171
165	1.64000000	-1083.273804	1277.386597	356.930725	-1054.775146	1302.091309	-22.435673	-1129.409424	1357.371582	178.247162	-984.058533	1236.787720	159.850357	-1188.680786	981.845154	411.514313	-1073.148804	988.915649	-130.231476	-1170.453125	751.884003	415.693481	-917.683136	844.372864	-75.472826	-1059.710205	847.134094	330.116425	-1115.749023	835.631104	-20.343464	-1221.961670	884.433411	228.134933	-1231.410645	882.310303	136.899658	-1226.686157	883.371857	182.517296	-1210.886353	1113.300171	164.497940	-953.144836	1044.483521	151.988022	-975.809082	515.766113	355.092560	-958.334229	430.389313	303.185211	-924.134216	262.349030	367.855316	-886.435852	53.522774	279.405853	-933.469604	40.775028	234.173630	-757.328064	54.744930	252.684906	-1157.522705	481.594086	-18.118034	-1189.449951	404.929932	34.553261	-1238.640625	291.540558	-9.655725	-1345.533447	60.546665	72.780159	-1391.856567	60.688675	119.852409	-1214.575317	35.062523	87.261345
166	1.65000000	-1072.957031	1277.097290	358.290985	-1044.540894	1301.905273	-21.169992	-1119.005127	1357.382812	179.616119	-973.684509	1236.841309	161.233185	-1178.244995	981.613159	412.988434	-1064.796997	988.306091	-128.089111	-1160.585571	751.692261	417.556961	-909.031525	843.761169	-73.539415	-1049.228882	848.112610	331.451355	-1104.952393	834.457275	-18.841343	-1211.670044	884.822083	229.501389	-1221.066772	882.218872	138.208572	-1216.368408	883.520477	183.854980	-1200.540405	1113.287964	165.711456	-942.492249	1044.546997	153.401596	-963.428528	516.987366	354.552704	-946.171936	431.404449	302.748108	-913.164917	263.078827	366.955078	-884.378662	53.144104	279.033417	-932.300781	41.916637	234.131134	-755.242676	50.073631	251.470154	-1147.974609	481.242340	-16.449503	-1180.364990	404.914246	36.002323	-1232.227295	292.959656	-8.878191	-1344.173828	64.019142	72.522202	-1390.408813	65.203384	119.630173	-1214.294312	34.907139	87.327309
167	1.66000000	-1062.626343	1277.194458	359.662048	-1034.192993	1302.041016	-19.882420	-1108.505371	1357.769897	180.979935	-963.274414	1237.212646	162.663589	-1167.473267	981.635498	414.483582	-1056.746216	987.982605	-125.734222	-1150.127319	751.775940	419.358459	-901.041107	842.976013	-71.689594	-1038.961182	849.532166	332.863251	-1093.980713	833.677979	-17.228476	-1201.422241	885.494873	230.803299	-1210.770630	882.440430	139.457474	-1206.096436	883.967651	185.130386	-1190.210083	1113.637451	166.896103	-931.829407	1045.007935	154.948837	-950.803406	518.601379	353.970337	-934.134949	432.584503	302.309235	-902.446960	264.066040	366.331604	-882.761292	52.910809	278.742035	-931.424500	42.956917	234.152023	-753.664612	46.319023	250.502014	-1137.621338	481.118164	-14.744773	-1170.206177	405.094696	37.376835	-1224.954712	294.798431	-8.262753	-1342.344360	68.250618	72.106087	-1388.407104	70.708252	119.244957	-1213.952026	34.731586	87.412193
168	1.67000000	-1052.294312	1277.706665	361.032928	-1023.754395	1302.503052	-18.573030	-1097.952515	1358.504272	182.324951	-952.849548	1237.893799	164.131302	-1156.394165	981.953918	415.997498	-1048.958984	987.976807	-123.184158	-1139.067993	752.168182	421.090881	-893.703888	842.043365	-69.931065	-1028.867188	851.276062	334.349457	-1082.902710	833.346252	-15.489744	-1191.195312	886.405701	232.079208	-1200.524780	882.947998	140.696335	-1195.860046	884.676849	186.387772	-1179.899902	1114.318604	168.050232	-921.193054	1045.840820	156.614258	-938.123962	520.451721	353.419159	-922.501526	433.763672	301.908905	-892.397156	265.069885	365.997498	-881.502869	52.781883	278.515350	-930.750244	43.830853	234.217941	-752.487854	43.517273	249.746887	-1126.400391	481.183533	-13.045724	-1158.877930	405.445557	38.622086	-1216.697266	297.055023	-7.878367	-1339.932739	73.276489	71.480019	-1385.720947	77.278450	118.622391	-1213.536743	34.559143	87.507332
